<svg width="402" height="33" viewBox="0 0 402 33" fill="none" xmlns="http://www.w3.org/2000/svg">
<path d="M94.4532 14.566C94.4532 15.5193 94.2106 16.4293 93.7252 17.296C93.2572 18.1627 92.6159 18.9253 91.8012 19.584C91.0039 20.2253 90.0592 20.7367 88.9672 21.118C87.8926 21.4993 86.7486 21.69 85.5352 21.69C85.1019 21.69 84.7552 21.638 84.4952 21.534C84.2526 21.4127 83.9752 21.1873 83.6632 20.858C82.7966 22.7473 82.0859 24.4893 81.5312 26.084C80.9939 27.6613 80.5692 29.1953 80.2572 30.686C79.5986 30.53 79.0612 30.2527 78.6452 29.854C78.2292 29.4727 77.8479 28.9873 77.5012 28.398C77.6746 28.0687 77.8826 27.6353 78.1252 27.098C78.3679 26.5607 78.6626 25.902 79.0092 25.122C79.3559 24.3247 79.7546 23.38 80.2052 22.288C80.6732 21.1787 81.2192 19.8873 81.8432 18.414C82.1206 17.738 82.3632 17.1487 82.5712 16.646C82.7792 16.1433 82.9612 15.6753 83.1172 15.242C83.2732 14.7913 83.4119 14.3493 83.5332 13.916C83.6719 13.4827 83.8106 13.006 83.9492 12.486C83.1346 12.746 82.3806 13.0493 81.6872 13.396C81.0112 13.7427 80.4479 14.1067 79.9972 14.488C79.8412 14.384 79.6766 14.228 79.5032 14.02C79.3472 13.812 79.1999 13.5867 79.0612 13.344C78.9226 13.084 78.8012 12.824 78.6972 12.564C78.5932 12.304 78.5326 12.07 78.5152 11.862C79.0179 11.5153 79.6419 11.1947 80.3872 10.9C81.1326 10.6053 81.9299 10.354 82.7792 10.146C83.6286 9.92067 84.5039 9.74733 85.4052 9.626C86.3239 9.50467 87.1992 9.444 88.0312 9.444C89.0192 9.444 89.9119 9.574 90.7092 9.834C91.5066 10.0767 92.1826 10.4233 92.7372 10.874C93.2919 11.3247 93.7166 11.862 94.0112 12.486C94.3059 13.11 94.4532 13.8033 94.4532 14.566ZM89.8252 11.446C89.1666 11.446 88.4906 11.498 87.7972 11.602L88.1092 12.07C87.9359 12.2953 87.7192 12.6333 87.4592 13.084C87.1992 13.5347 86.9132 14.0807 86.6012 14.722C86.2892 15.346 85.9426 16.048 85.5612 16.828C85.1972 17.608 84.8072 18.4313 84.3912 19.298C85.7432 19.298 86.9739 19.1767 88.0832 18.934C89.1926 18.674 90.1372 18.3273 90.9172 17.894C91.7146 17.4433 92.3299 16.9233 92.7632 16.334C93.2139 15.7447 93.4392 15.112 93.4392 14.436C93.4392 13.5347 93.1359 12.8153 92.5292 12.278C91.9226 11.7233 91.0212 11.446 89.8252 11.446Z" fill="white"/>
<path d="M102.201 17.816C102.132 18.8907 101.941 19.818 101.629 20.598C101.317 21.3607 100.867 22.0367 100.277 22.626C99.7052 23.198 99.0032 23.718 98.1712 24.186C97.3392 24.654 96.3686 25.1047 95.2592 25.538C95.2592 25.642 95.2506 25.7547 95.2332 25.876C95.2332 25.98 95.2332 26.0927 95.2332 26.214C95.2332 26.4393 95.2506 26.6733 95.2852 26.916C95.3199 27.1587 95.3806 27.384 95.4672 27.592C95.5539 27.8 95.6752 27.9733 95.8312 28.112C95.9872 28.2333 96.1866 28.294 96.4292 28.294C96.8972 28.294 97.3566 28.19 97.8072 27.982C98.2579 27.774 98.6826 27.5227 99.0812 27.228C99.4972 26.916 99.8786 26.5867 100.225 26.24C100.589 25.876 100.91 25.5467 101.187 25.252C101.361 25.408 101.508 25.5553 101.629 25.694C100.849 26.734 99.9912 27.6007 99.0552 28.294C98.1366 28.97 97.2612 29.4033 96.4292 29.594C95.2332 29.4553 94.2972 29.022 93.6212 28.294C92.9626 27.5487 92.6332 26.656 92.6332 25.616C92.6332 24.9053 92.7286 24.186 92.9192 23.458C93.1272 22.7127 93.4046 22.002 93.7512 21.326C94.1152 20.6327 94.5312 19.9827 94.9992 19.376C95.4846 18.7693 95.9959 18.2407 96.5332 17.79C97.0879 17.3393 97.6512 16.984 98.2232 16.724C98.8126 16.464 99.3932 16.334 99.9652 16.334C100.763 16.438 101.508 16.932 102.201 17.816ZM100.407 18.674C99.9392 18.7433 99.4539 18.934 98.9512 19.246C98.4486 19.558 97.9719 19.974 97.5212 20.494C97.0879 21.014 96.6892 21.6207 96.3252 22.314C95.9612 23.0073 95.6752 23.7527 95.4672 24.55C96.8539 23.8567 98.0066 23.0073 98.9252 22.002C99.8439 20.9793 100.338 19.87 100.407 18.674Z" fill="white"/>
<path d="M102.781 28.06C102.868 27.5573 103.015 26.8987 103.223 26.084C103.448 25.252 103.708 24.3767 104.003 23.458C104.298 22.522 104.61 21.586 104.939 20.65C105.268 19.714 105.589 18.8733 105.901 18.128C106.126 17.5907 106.326 17.1747 106.499 16.88C106.672 16.568 106.863 16.308 107.071 16.1C107.314 16.1347 107.565 16.1953 107.825 16.282C108.085 16.3687 108.336 16.4727 108.579 16.594C108.822 16.7153 109.038 16.8453 109.229 16.984C109.42 17.1053 109.567 17.2267 109.671 17.348C109.203 17.9027 108.787 18.5353 108.423 19.246C108.076 19.9567 107.721 20.8667 107.357 21.976C108.293 21.144 109.116 20.3467 109.827 19.584C110.555 18.8213 111.231 17.972 111.855 17.036C111.959 16.9493 112.141 16.906 112.401 16.906C112.644 16.906 112.878 16.9493 113.103 17.036C113.328 17.1053 113.484 17.2093 113.571 17.348C113.259 18.18 113.103 19.0033 113.103 19.818C113.103 20.5807 113.216 21.1527 113.441 21.534C113.424 21.638 113.302 21.8373 113.077 22.132C112.869 22.4267 112.635 22.704 112.375 22.964C111.907 22.7213 111.491 22.392 111.127 21.976C110.763 21.5427 110.494 21.0747 110.321 20.572C109.506 21.144 108.813 21.7073 108.241 22.262C107.669 22.7993 107.175 23.406 106.759 24.082C106.36 24.7407 106.014 25.5033 105.719 26.37C105.442 27.2367 105.173 28.268 104.913 29.464C104.757 29.4467 104.566 29.386 104.341 29.282C104.133 29.1953 103.916 29.0827 103.691 28.944C103.483 28.8053 103.292 28.658 103.119 28.502C102.946 28.346 102.833 28.1987 102.781 28.06Z" fill="white"/>
<path d="M122.455 18.232C122.438 18.5613 122.377 18.908 122.273 19.272C122.186 19.6187 122.074 19.9393 121.935 20.234C121.796 20.5113 121.649 20.7453 121.493 20.936C121.337 21.1267 121.19 21.222 121.051 21.222C120.86 21.2047 120.748 21.0747 120.713 20.832C120.713 20.78 120.73 20.702 120.765 20.598C120.817 20.4767 120.869 20.3467 120.921 20.208C120.973 20.0693 121.016 19.9307 121.051 19.792C121.103 19.6533 121.129 19.532 121.129 19.428C121.129 19.1853 121.068 18.986 120.947 18.83C120.843 18.6567 120.696 18.57 120.505 18.57C119.812 18.57 119.283 19.0033 118.919 19.87C118.555 20.7367 118.373 22.0107 118.373 23.692C118.373 23.8653 118.382 23.9693 118.399 24.004C118.763 23.9867 119.084 23.978 119.361 23.978C119.656 23.9607 119.942 23.952 120.219 23.952C120.236 23.9867 120.245 24.056 120.245 24.16C120.245 24.316 120.21 24.4287 120.141 24.498C119.742 24.5847 119.422 24.6627 119.179 24.732C118.954 24.784 118.78 24.836 118.659 24.888C118.538 24.94 118.46 25.0007 118.425 25.07C118.408 25.122 118.399 25.2 118.399 25.304C118.399 25.4427 118.399 25.5813 118.399 25.72C118.416 25.8587 118.425 26.032 118.425 26.24C118.425 27.696 118.026 28.866 117.229 29.75C116.449 30.634 115.357 31.1453 113.953 31.284C113.71 31.2667 113.459 31.1973 113.199 31.076C112.939 30.9547 112.688 30.7987 112.445 30.608C112.22 30.4173 112.02 30.2007 111.847 29.958C111.674 29.7327 111.552 29.4987 111.483 29.256C111.483 28.5973 111.622 27.9733 111.899 27.384C112.176 26.7773 112.549 26.2487 113.017 25.798C113.502 25.33 114.066 24.9573 114.707 24.68C115.366 24.3853 116.076 24.212 116.839 24.16C116.839 23.7267 116.796 23.302 116.709 22.886C116.622 22.47 116.527 22.0713 116.423 21.69C116.336 21.2913 116.25 20.91 116.163 20.546C116.076 20.1647 116.033 19.792 116.033 19.428C116.033 18.96 116.128 18.5007 116.319 18.05C116.51 17.582 116.761 17.1573 117.073 16.776C117.385 16.3773 117.749 16.0393 118.165 15.762C118.581 15.4847 119.014 15.294 119.465 15.19C119.656 15.242 119.907 15.398 120.219 15.658C120.548 15.9007 120.869 16.178 121.181 16.49C121.493 16.802 121.77 17.1227 122.013 17.452C122.256 17.764 122.403 18.024 122.455 18.232ZM113.875 30.088C114.291 29.9147 114.681 29.6633 115.045 29.334C115.426 29.0047 115.756 28.632 116.033 28.216C116.31 27.8 116.527 27.358 116.683 26.89C116.856 26.422 116.943 25.9627 116.943 25.512C116.596 25.564 116.215 25.7287 115.799 26.006C115.383 26.266 114.993 26.5867 114.629 26.968C114.265 27.332 113.962 27.7133 113.719 28.112C113.476 28.5107 113.355 28.8573 113.355 29.152C113.355 29.5333 113.528 29.8453 113.875 30.088Z" fill="white"/>
<path d="M125.541 29.49C124.553 29.386 123.765 28.9527 123.175 28.19C122.586 27.4273 122.291 26.4567 122.291 25.278C122.291 24.5847 122.395 23.8653 122.603 23.12C122.811 22.3747 123.106 21.6553 123.487 20.962C123.869 20.2513 124.319 19.584 124.839 18.96C125.359 18.336 125.923 17.7987 126.529 17.348C127.483 16.6373 128.375 16.282 129.207 16.282C129.762 16.5767 130.308 17.192 130.845 18.128C130.932 18.128 131.01 18.128 131.079 18.128C131.149 18.1107 131.227 18.102 131.313 18.102C132.232 18.102 132.691 18.9167 132.691 20.546C132.691 21.638 132.509 22.678 132.145 23.666C131.799 24.6367 131.305 25.5207 130.663 26.318C130.039 27.1153 129.285 27.7913 128.401 28.346C127.535 28.8833 126.581 29.2647 125.541 29.49ZM126.867 21.3C126.573 21.6987 126.295 22.132 126.035 22.6C125.775 23.068 125.55 23.5447 125.359 24.03C125.169 24.498 125.021 24.9573 124.917 25.408C124.813 25.8413 124.761 26.2313 124.761 26.578C124.761 26.994 124.831 27.3927 124.969 27.774C125.108 28.1553 125.264 28.372 125.437 28.424C126.217 28.2507 126.928 27.93 127.569 27.462C128.228 26.9767 128.791 26.3787 129.259 25.668C129.745 24.9573 130.117 24.1513 130.377 23.25C130.655 22.3487 130.793 21.3867 130.793 20.364C130.793 19.9133 130.767 19.558 130.715 19.298C130.663 19.038 130.577 18.8127 130.455 18.622C129.693 18.8473 129.008 19.2113 128.401 19.714C127.812 20.2167 127.301 20.7453 126.867 21.3Z" fill="white"/>
<path d="M138.162 15.97C138.613 16.1087 139.037 16.4207 139.436 16.906C139.835 17.374 140.129 17.894 140.32 18.466C140.129 18.934 139.835 19.4973 139.436 20.156C139.037 20.8147 138.639 21.4907 138.24 22.184C137.841 22.86 137.477 23.51 137.148 24.134C136.836 24.7407 136.654 25.2433 136.602 25.642C136.879 25.3473 137.183 25.0093 137.512 24.628C137.859 24.2293 138.188 23.8393 138.5 23.458C138.829 23.0593 139.133 22.704 139.41 22.392C139.687 22.0627 139.904 21.82 140.06 21.664C140.389 21.3173 140.779 20.9187 141.23 20.468C141.681 20 142.149 19.5667 142.634 19.168C143.137 18.752 143.639 18.4053 144.142 18.128C144.645 17.8333 145.104 17.686 145.52 17.686C145.971 17.686 146.343 17.842 146.638 18.154C146.95 18.4487 147.193 18.7607 147.366 19.09C147.366 19.1247 147.297 19.1767 147.158 19.246C147.037 19.298 146.855 19.4627 146.612 19.74C146.369 20.052 146.092 20.4853 145.78 21.04C145.485 21.5773 145.191 22.1667 144.896 22.808C144.619 23.432 144.385 24.0733 144.194 24.732C144.003 25.3907 143.908 25.9887 143.908 26.526C143.908 26.9593 143.96 27.2367 144.064 27.358C144.185 27.4793 144.35 27.54 144.558 27.54C144.749 27.54 144.948 27.4967 145.156 27.41C145.364 27.3233 145.529 27.28 145.65 27.28C145.719 27.3147 145.771 27.3927 145.806 27.514C145.858 27.618 145.884 27.7133 145.884 27.8C145.745 27.9213 145.581 28.0427 145.39 28.164C145.199 28.2853 145 28.398 144.792 28.502C144.584 28.606 144.376 28.6927 144.168 28.762C143.977 28.8313 143.804 28.866 143.648 28.866C143.145 28.866 142.729 28.788 142.4 28.632C142.088 28.4933 141.837 28.3027 141.646 28.06C141.473 27.8173 141.351 27.5313 141.282 27.202C141.213 26.8553 141.178 26.4913 141.178 26.11C141.178 25.902 141.195 25.668 141.23 25.408C141.265 25.148 141.334 24.8447 141.438 24.498C141.542 24.134 141.689 23.7093 141.88 23.224C142.071 22.7213 142.313 22.1233 142.608 21.43C142.573 21.43 142.339 21.5513 141.906 21.794C141.473 22.0367 141.005 22.4093 140.502 22.912C139.687 23.692 138.951 24.4633 138.292 25.226C137.651 25.9887 136.992 26.838 136.316 27.774C135.935 28.3113 135.597 28.762 135.302 29.126C135.025 29.5073 134.782 29.7587 134.574 29.88C134.21 29.672 133.941 29.3773 133.768 28.996C133.595 28.632 133.465 28.2507 133.378 27.852C133.378 27.5227 133.421 27.1067 133.508 26.604C133.612 26.1013 133.742 25.5467 133.898 24.94C134.071 24.316 134.279 23.666 134.522 22.99C134.765 22.314 135.033 21.638 135.328 20.962C135.987 19.4367 136.585 18.2407 137.122 17.374C137.677 16.5073 138.023 16.0393 138.162 15.97Z" fill="white"/>
<path d="M156.961 18.076C157.134 18.076 157.334 18.1107 157.559 18.18C157.802 18.232 158.018 18.31 158.209 18.414C158.4 18.5007 158.556 18.596 158.677 18.7C158.816 18.804 158.885 18.8993 158.885 18.986C158.538 19.714 158.218 20.4507 157.923 21.196C157.628 21.924 157.377 22.626 157.169 23.302C156.961 23.978 156.796 24.6107 156.675 25.2C156.571 25.7893 156.519 26.3007 156.519 26.734C156.519 27.2193 156.571 27.6267 156.675 27.956C156.779 28.268 156.952 28.4933 157.195 28.632C156.987 28.7707 156.718 28.8833 156.389 28.97C156.06 29.0567 155.765 29.1 155.505 29.1C154.569 29.1 154.101 28.4587 154.101 27.176C154.101 26.188 154.43 24.836 155.089 23.12C154.742 23.9173 154.344 24.6713 153.893 25.382C153.442 26.0753 152.983 26.6907 152.515 27.228C152.047 27.7653 151.57 28.2073 151.085 28.554C150.617 28.8833 150.184 29.0827 149.785 29.152C149.144 29.1173 148.624 28.814 148.225 28.242C147.826 27.6527 147.627 26.9073 147.627 26.006C147.627 25.0353 147.835 24.0127 148.251 22.938C148.667 21.8633 149.196 20.8667 149.837 19.948C150.496 19.0293 151.206 18.2667 151.969 17.66C152.732 17.036 153.468 16.7067 154.179 16.672C154.352 16.724 154.543 16.828 154.751 16.984C154.976 17.14 155.184 17.322 155.375 17.53C155.583 17.738 155.756 17.9547 155.895 18.18C156.034 18.388 156.112 18.57 156.129 18.726C155.436 18.83 154.716 19.168 153.971 19.74C153.243 20.312 152.576 21.0053 151.969 21.82C151.38 22.6173 150.894 23.4753 150.513 24.394C150.132 25.3127 149.941 26.1707 149.941 26.968C149.941 27.2973 150.062 27.5053 150.305 27.592C150.808 27.488 151.388 27.0633 152.047 26.318C152.706 25.5553 153.503 24.3853 154.439 22.808C154.612 22.496 154.803 22.1493 155.011 21.768C155.236 21.3867 155.462 20.988 155.687 20.572C155.912 20.156 156.129 19.74 156.337 19.324C156.562 18.8907 156.77 18.4747 156.961 18.076Z" fill="white"/>
<path d="M160.178 26.916C160.178 26.1533 160.36 25.0873 160.724 23.718C161.088 22.3313 161.599 20.7193 162.258 18.882C163.332 15.9527 164.338 13.5173 165.274 11.576C166.227 9.61733 167.154 8.092 168.056 7C168.264 7.03467 168.515 7.12133 168.81 7.26C169.122 7.39867 169.425 7.55467 169.72 7.728C170.014 7.884 170.274 8.04867 170.5 8.222C170.742 8.39533 170.898 8.534 170.968 8.638C169.616 10.2327 168.428 11.9487 167.406 13.786C166.383 15.6233 165.447 17.7293 164.598 20.104C163.87 22.1493 163.315 23.9953 162.934 25.642C162.552 27.2713 162.362 28.632 162.362 29.724C162.362 30.0187 162.362 30.2007 162.362 30.27C162.362 30.3393 162.37 30.4087 162.388 30.478C162.145 30.4433 161.937 30.3827 161.764 30.296C161.59 30.2093 161.478 30.1053 161.426 29.984C161.391 29.8973 161.296 29.7673 161.14 29.594C160.984 29.438 160.845 29.3167 160.724 29.23C160.568 29.126 160.438 28.8573 160.334 28.424C160.23 27.9733 160.178 27.4707 160.178 26.916Z" fill="white"/>
<path d="M182.398 9.366C183.056 9.366 183.741 9.48733 184.452 9.73C185.162 9.97267 185.786 10.2847 186.324 10.666C186.15 11.55 185.986 12.3473 185.83 13.058C185.691 13.7687 185.561 14.4187 185.44 15.008C185.318 15.58 185.197 16.1087 185.076 16.594C184.972 17.062 184.868 17.504 184.764 17.92C184.348 19.48 183.914 20.8927 183.464 22.158C183.03 23.406 182.562 24.5327 182.06 25.538C181.574 26.5433 181.054 27.436 180.5 28.216C179.962 28.996 179.382 29.6807 178.758 30.27C178.151 30.842 177.544 31.31 176.938 31.674C176.331 32.038 175.768 32.272 175.248 32.376C174.554 32.376 173.913 32.298 173.324 32.142C172.734 31.986 172.223 31.7693 171.79 31.492C171.374 31.232 171.044 30.9113 170.802 30.53C170.576 30.166 170.464 29.7587 170.464 29.308C170.464 28.8227 170.585 28.216 170.828 27.488C171.07 26.7427 171.443 25.8673 171.946 24.862C172.154 24.8793 172.396 24.9313 172.674 25.018C172.951 25.1047 173.228 25.2087 173.506 25.33C173.783 25.4513 174.034 25.59 174.26 25.746C174.485 25.8847 174.65 26.0233 174.754 26.162C174.199 26.734 173.748 27.3667 173.402 28.06C173.055 28.736 172.882 29.3253 172.882 29.828C172.882 30.1227 172.934 30.3827 173.038 30.608C173.159 30.8507 173.358 31.0673 173.636 31.258C174.693 30.8593 175.724 30.114 176.73 29.022C177.735 27.9473 178.628 26.604 179.408 24.992C179.876 24.0387 180.3 22.9467 180.682 21.716C181.063 20.4853 181.384 19.2547 181.644 18.024C181.921 16.776 182.129 15.5887 182.268 14.462C182.424 13.318 182.502 12.356 182.502 11.576C182.502 11.4547 182.493 11.29 182.476 11.082C182.476 10.8567 182.467 10.6313 182.45 10.406C182.45 10.1633 182.441 9.94667 182.424 9.756C182.406 9.56533 182.398 9.43533 182.398 9.366Z" fill="white"/>
<path d="M188.535 29.49C187.547 29.386 186.759 28.9527 186.169 28.19C185.58 27.4273 185.285 26.4567 185.285 25.278C185.285 24.5847 185.389 23.8653 185.597 23.12C185.805 22.3747 186.1 21.6553 186.481 20.962C186.863 20.2513 187.313 19.584 187.833 18.96C188.353 18.336 188.917 17.7987 189.523 17.348C190.477 16.6373 191.369 16.282 192.201 16.282C192.756 16.5767 193.302 17.192 193.839 18.128C193.926 18.128 194.004 18.128 194.073 18.128C194.143 18.1107 194.221 18.102 194.307 18.102C195.226 18.102 195.685 18.9167 195.685 20.546C195.685 21.638 195.503 22.678 195.139 23.666C194.793 24.6367 194.299 25.5207 193.657 26.318C193.033 27.1153 192.279 27.7913 191.395 28.346C190.529 28.8833 189.575 29.2647 188.535 29.49ZM189.861 21.3C189.567 21.6987 189.289 22.132 189.029 22.6C188.769 23.068 188.544 23.5447 188.353 24.03C188.163 24.498 188.015 24.9573 187.911 25.408C187.807 25.8413 187.755 26.2313 187.755 26.578C187.755 26.994 187.825 27.3927 187.963 27.774C188.102 28.1553 188.258 28.372 188.431 28.424C189.211 28.2507 189.922 27.93 190.563 27.462C191.222 26.9767 191.785 26.3787 192.253 25.668C192.739 24.9573 193.111 24.1513 193.371 23.25C193.649 22.3487 193.787 21.3867 193.787 20.364C193.787 19.9133 193.761 19.558 193.709 19.298C193.657 19.038 193.571 18.8127 193.449 18.622C192.687 18.8473 192.002 19.2113 191.395 19.714C190.806 20.2167 190.295 20.7453 189.861 21.3Z" fill="white"/>
<path d="M204.016 28.008C203.687 27.7307 203.461 27.384 203.34 26.968C203.236 26.552 203.184 26.1967 203.184 25.902C203.184 25.538 203.227 25.226 203.314 24.966C203.245 24.966 203.089 25.1047 202.846 25.382C202.603 25.6593 202.335 25.9887 202.04 26.37C201.763 26.7513 201.485 27.124 201.208 27.488C200.931 27.852 200.723 28.1207 200.584 28.294C200.359 28.5367 200.142 28.7273 199.934 28.866C199.743 29.0047 199.587 29.0827 199.466 29.1C199.189 29.0827 198.894 29.022 198.582 28.918C198.287 28.8313 198.001 28.7013 197.724 28.528C197.464 28.3547 197.23 28.1467 197.022 27.904C196.831 27.6613 196.701 27.384 196.632 27.072C196.632 26.5867 196.641 26.188 196.658 25.876C196.693 25.564 196.753 25.226 196.84 24.862C196.996 24.2033 197.221 23.458 197.516 22.626C197.828 21.794 198.183 20.9793 198.582 20.182C198.981 19.3673 199.423 18.6133 199.908 17.92C200.411 17.2093 200.939 16.6547 201.494 16.256C201.65 16.256 201.832 16.2733 202.04 16.308C202.248 16.3253 202.456 16.3687 202.664 16.438C202.889 16.5073 203.097 16.594 203.288 16.698C203.496 16.7847 203.669 16.906 203.808 17.062C203.652 17.2353 203.253 17.816 202.612 18.804C201.988 19.792 201.286 21.2133 200.506 23.068C200.419 23.2587 200.315 23.536 200.194 23.9C200.073 24.264 199.951 24.6453 199.83 25.044C199.709 25.4427 199.605 25.8327 199.518 26.214C199.449 26.5953 199.414 26.8987 199.414 27.124C199.414 27.2627 199.431 27.3667 199.466 27.436C199.518 27.5053 199.561 27.5573 199.596 27.592C199.856 27.488 200.185 27.202 200.584 26.734C200.983 26.266 201.537 25.5467 202.248 24.576C202.421 24.3333 202.621 24.056 202.846 23.744C203.089 23.432 203.331 23.1027 203.574 22.756C203.817 22.392 204.042 22.0193 204.25 21.638C204.475 21.2567 204.657 20.8753 204.796 20.494C204.865 20.286 204.952 20.0433 205.056 19.766C205.177 19.4713 205.316 19.168 205.472 18.856C205.645 18.544 205.836 18.232 206.044 17.92C206.269 17.5907 206.529 17.2873 206.824 17.01C207.049 17.01 207.292 17.036 207.552 17.088C207.812 17.14 208.055 17.2093 208.28 17.296C208.523 17.3653 208.731 17.452 208.904 17.556C209.077 17.6427 209.207 17.738 209.294 17.842C208.982 18.6047 208.635 19.3587 208.254 20.104C207.873 20.8493 207.517 21.586 207.188 22.314C206.859 23.0247 206.581 23.7353 206.356 24.446C206.131 25.1567 206.018 25.85 206.018 26.526C206.018 26.89 206.044 27.2107 206.096 27.488C206.165 27.748 206.235 27.9733 206.304 28.164C206.373 28.3373 206.434 28.4847 206.486 28.606C206.555 28.7273 206.59 28.8313 206.59 28.918C206.59 28.9353 206.573 28.9613 206.538 28.996C206.521 29.0133 206.503 29.022 206.486 29.022C206.365 29.022 206.209 28.996 206.018 28.944C205.827 28.892 205.611 28.814 205.368 28.71C205.143 28.6233 204.909 28.5193 204.666 28.398C204.441 28.2767 204.224 28.1467 204.016 28.008Z" fill="white"/>
<path d="M209.168 28.06C209.254 27.5573 209.402 26.8987 209.61 26.084C209.835 25.252 210.095 24.3767 210.39 23.458C210.684 22.522 210.996 21.586 211.326 20.65C211.655 19.714 211.976 18.8733 212.288 18.128C212.513 17.5907 212.712 17.1747 212.886 16.88C213.059 16.568 213.25 16.308 213.458 16.1C213.7 16.1347 213.952 16.1953 214.212 16.282C214.472 16.3687 214.723 16.4727 214.966 16.594C215.208 16.7153 215.425 16.8453 215.616 16.984C215.806 17.1053 215.954 17.2267 216.058 17.348C215.59 17.9027 215.174 18.5353 214.81 19.246C214.463 19.9567 214.108 20.8667 213.744 21.976C214.68 21.144 215.503 20.3467 216.214 19.584C216.942 18.8213 217.618 17.972 218.242 17.036C218.346 16.9493 218.528 16.906 218.788 16.906C219.03 16.906 219.264 16.9493 219.49 17.036C219.715 17.1053 219.871 17.2093 219.958 17.348C219.646 18.18 219.49 19.0033 219.49 19.818C219.49 20.5807 219.602 21.1527 219.828 21.534C219.81 21.638 219.689 21.8373 219.464 22.132C219.256 22.4267 219.022 22.704 218.762 22.964C218.294 22.7213 217.878 22.392 217.514 21.976C217.15 21.5427 216.881 21.0747 216.708 20.572C215.893 21.144 215.2 21.7073 214.628 22.262C214.056 22.7993 213.562 23.406 213.146 24.082C212.747 24.7407 212.4 25.5033 212.106 26.37C211.828 27.2367 211.56 28.268 211.3 29.464C211.144 29.4467 210.953 29.386 210.728 29.282C210.52 29.1953 210.303 29.0827 210.078 28.944C209.87 28.8053 209.679 28.658 209.506 28.502C209.332 28.346 209.22 28.1987 209.168 28.06Z" fill="white"/>
<path d="M224.49 15.97C224.941 16.1087 225.365 16.4207 225.764 16.906C226.163 17.374 226.457 17.894 226.648 18.466C226.457 18.934 226.163 19.4973 225.764 20.156C225.365 20.8147 224.967 21.4907 224.568 22.184C224.169 22.86 223.805 23.51 223.476 24.134C223.164 24.7407 222.982 25.2433 222.93 25.642C223.207 25.3473 223.511 25.0093 223.84 24.628C224.187 24.2293 224.516 23.8393 224.828 23.458C225.157 23.0593 225.461 22.704 225.738 22.392C226.015 22.0627 226.232 21.82 226.388 21.664C226.717 21.3173 227.107 20.9187 227.558 20.468C228.009 20 228.477 19.5667 228.962 19.168C229.465 18.752 229.967 18.4053 230.47 18.128C230.973 17.8333 231.432 17.686 231.848 17.686C232.299 17.686 232.671 17.842 232.966 18.154C233.278 18.4487 233.521 18.7607 233.694 19.09C233.694 19.1247 233.625 19.1767 233.486 19.246C233.365 19.298 233.183 19.4627 232.94 19.74C232.697 20.052 232.42 20.4853 232.108 21.04C231.813 21.5773 231.519 22.1667 231.224 22.808C230.947 23.432 230.713 24.0733 230.522 24.732C230.331 25.3907 230.236 25.9887 230.236 26.526C230.236 26.9593 230.288 27.2367 230.392 27.358C230.513 27.4793 230.678 27.54 230.886 27.54C231.077 27.54 231.276 27.4967 231.484 27.41C231.692 27.3233 231.857 27.28 231.978 27.28C232.047 27.3147 232.099 27.3927 232.134 27.514C232.186 27.618 232.212 27.7133 232.212 27.8C232.073 27.9213 231.909 28.0427 231.718 28.164C231.527 28.2853 231.328 28.398 231.12 28.502C230.912 28.606 230.704 28.6927 230.496 28.762C230.305 28.8313 230.132 28.866 229.976 28.866C229.473 28.866 229.057 28.788 228.728 28.632C228.416 28.4933 228.165 28.3027 227.974 28.06C227.801 27.8173 227.679 27.5313 227.61 27.202C227.541 26.8553 227.506 26.4913 227.506 26.11C227.506 25.902 227.523 25.668 227.558 25.408C227.593 25.148 227.662 24.8447 227.766 24.498C227.87 24.134 228.017 23.7093 228.208 23.224C228.399 22.7213 228.641 22.1233 228.936 21.43C228.901 21.43 228.667 21.5513 228.234 21.794C227.801 22.0367 227.333 22.4093 226.83 22.912C226.015 23.692 225.279 24.4633 224.62 25.226C223.979 25.9887 223.32 26.838 222.644 27.774C222.263 28.3113 221.925 28.762 221.63 29.126C221.353 29.5073 221.11 29.7587 220.902 29.88C220.538 29.672 220.269 29.3773 220.096 28.996C219.923 28.632 219.793 28.2507 219.706 27.852C219.706 27.5227 219.749 27.1067 219.836 26.604C219.94 26.1013 220.07 25.5467 220.226 24.94C220.399 24.316 220.607 23.666 220.85 22.99C221.093 22.314 221.361 21.638 221.656 20.962C222.315 19.4367 222.913 18.2407 223.45 17.374C224.005 16.5073 224.351 16.0393 224.49 15.97Z" fill="white"/>
<path d="M243.289 18.076C243.462 18.076 243.662 18.1107 243.887 18.18C244.13 18.232 244.346 18.31 244.537 18.414C244.728 18.5007 244.884 18.596 245.005 18.7C245.144 18.804 245.213 18.8993 245.213 18.986C244.866 19.714 244.546 20.4507 244.251 21.196C243.956 21.924 243.705 22.626 243.497 23.302C243.289 23.978 243.124 24.6107 243.003 25.2C242.899 25.7893 242.847 26.3007 242.847 26.734C242.847 27.2193 242.899 27.6267 243.003 27.956C243.107 28.268 243.28 28.4933 243.523 28.632C243.315 28.7707 243.046 28.8833 242.717 28.97C242.388 29.0567 242.093 29.1 241.833 29.1C240.897 29.1 240.429 28.4587 240.429 27.176C240.429 26.188 240.758 24.836 241.417 23.12C241.07 23.9173 240.672 24.6713 240.221 25.382C239.77 26.0753 239.311 26.6907 238.843 27.228C238.375 27.7653 237.898 28.2073 237.413 28.554C236.945 28.8833 236.512 29.0827 236.113 29.152C235.472 29.1173 234.952 28.814 234.553 28.242C234.154 27.6527 233.955 26.9073 233.955 26.006C233.955 25.0353 234.163 24.0127 234.579 22.938C234.995 21.8633 235.524 20.8667 236.165 19.948C236.824 19.0293 237.534 18.2667 238.297 17.66C239.06 17.036 239.796 16.7067 240.507 16.672C240.68 16.724 240.871 16.828 241.079 16.984C241.304 17.14 241.512 17.322 241.703 17.53C241.911 17.738 242.084 17.9547 242.223 18.18C242.362 18.388 242.44 18.57 242.457 18.726C241.764 18.83 241.044 19.168 240.299 19.74C239.571 20.312 238.904 21.0053 238.297 21.82C237.708 22.6173 237.222 23.4753 236.841 24.394C236.46 25.3127 236.269 26.1707 236.269 26.968C236.269 27.2973 236.39 27.5053 236.633 27.592C237.136 27.488 237.716 27.0633 238.375 26.318C239.034 25.5553 239.831 24.3853 240.767 22.808C240.94 22.496 241.131 22.1493 241.339 21.768C241.564 21.3867 241.79 20.988 242.015 20.572C242.24 20.156 242.457 19.74 242.665 19.324C242.89 18.8907 243.098 18.4747 243.289 18.076Z" fill="white"/>
<path d="M246.506 26.916C246.506 26.1533 246.688 25.0873 247.052 23.718C247.416 22.3313 247.927 20.7193 248.586 18.882C249.661 15.9527 250.666 13.5173 251.602 11.576C252.555 9.61733 253.483 8.092 254.384 7C254.592 7.03467 254.843 7.12133 255.138 7.26C255.45 7.39867 255.753 7.55467 256.048 7.728C256.343 7.884 256.603 8.04867 256.828 8.222C257.071 8.39533 257.227 8.534 257.296 8.638C255.944 10.2327 254.757 11.9487 253.734 13.786C252.711 15.6233 251.775 17.7293 250.926 20.104C250.198 22.1493 249.643 23.9953 249.262 25.642C248.881 27.2713 248.69 28.632 248.69 29.724C248.69 30.0187 248.69 30.2007 248.69 30.27C248.69 30.3393 248.699 30.4087 248.716 30.478C248.473 30.4433 248.265 30.3827 248.092 30.296C247.919 30.2093 247.806 30.1053 247.754 29.984C247.719 29.8973 247.624 29.7673 247.468 29.594C247.312 29.438 247.173 29.3167 247.052 29.23C246.896 29.126 246.766 28.8573 246.662 28.424C246.558 27.9733 246.506 27.4707 246.506 26.916Z" fill="white"/>
</svg>
